<svg width="173" height="40" fill="none" xmlns="http://www.w3.org/2000/svg"><path d="M56.8 21.3c0-1.3.3-2.5.8-3.6a5.9 5.9 0 017.8-2.7c.7.4 1.4 1 1.8 1.6v-6.4h3.4V28h-3.4v-2c-.4.7-1 1.2-1.7 1.6-.8.4-1.6.6-2.6.6-1.2 0-2.2-.3-3.1-.8-1-.6-1.7-1.4-2.2-2.5a8 8 0 01-.8-3.6zm10.5 0c0-.8-.2-1.5-.5-2-.3-.6-.8-1-1.3-1.4-.6-.3-1.1-.5-1.8-.5a3.4 3.4 0 00-3 1.8c-.3.6-.5 1.3-.5 2.1s.2 1.5.5 2.1c.3.6.8 1 1.3 1.4.5.3 1.1.5 1.7.5a3.5 3.5 0 003-1.8c.4-.6.6-1.3.6-2.1zM77.8 17.5v6.4c0 .4.1.8.3 1 .3.2.6.3 1.1.3h1.6V28h-2.1c-2.8 0-4.3-1.4-4.3-4.1v-6.4H73v-2.8h1.5v-3.3h3.4v3.3h3v2.8h-3zM105.5 14.5c1.6 0 2.9.5 3.9 1.5s1.5 2.4 1.5 4.2V28h-3.4v-7.3c0-1-.2-1.9-.7-2.4-.6-.6-1.3-.9-2.2-.9-1 0-1.6.3-2.2.9-.5.5-.8 1.3-.8 2.4V28h-3.3v-7.3c0-1-.3-1.9-.8-2.4-.6-.6-1.3-.9-2.2-.9a3 3 0 00-2.2.9c-.5.5-.8 1.3-.8 2.4V28H89V14.7h3.4v1.6c.4-.5 1-1 1.7-1.3a5.7 5.7 0 015 .2c.8.4 1.4 1 1.9 1.9.4-.8 1-1.4 1.9-1.9.8-.5 1.7-.7 2.7-.7zM120 28.2a7 7 0 01-3.5-.8c-1-.6-1.8-1.4-2.4-2.4-.6-1-.8-2.3-.8-3.6 0-1.4.2-2.6.8-3.6.6-1 1.5-1.9 2.5-2.4a7 7 0 013.5-1 7 7 0 013.5 1 6 6 0 012.4 2.4 7 7 0 011 3.6c0 1.3-.4 2.5-1 3.6-.6 1-1.4 1.8-2.5 2.4-1 .5-2.2.8-3.5.8zm0-3c.6 0 1.2 0 1.7-.3s1-.8 1.3-1.4c.3-.6.5-1.3.5-2.1 0-1.3-.4-2.3-1-3-.7-.6-1.5-1-2.5-1s-1.7.4-2.4 1c-.6.7-1 1.7-1 3 0 1.2.4 2.2 1 2.9.6.7 1.4 1 2.4 1zM136.8 14.5c1.5 0 2.8.5 3.8 1.5s1.5 2.4 1.5 4.2V28h-3.4v-7.3c0-1.1-.3-2-.8-2.5s-1.2-.8-2.1-.8c-1 0-1.7.3-2.3.8-.5.6-.7 1.4-.7 2.5V28h-3.4V14.7h3.4v1.7c.4-.6 1-1 1.7-1.4.7-.3 1.4-.5 2.3-.5zM157.6 21v1.4h-9.8c0 1 .4 1.7 1 2.2.6.6 1.3.8 2.2.8 1.2 0 2.1-.5 2.7-1.6h3.6a6.1 6.1 0 01-6.2 4.4 7 7 0 01-3.5-.8c-1-.6-1.8-1.4-2.4-2.4-.5-1-.8-2.3-.8-3.6 0-1.4.3-2.6.8-3.7.6-1 1.4-1.8 2.4-2.4a7 7 0 013.5-.8 7 7 0 013.4.8c1 .5 1.7 1.3 2.3 2.3.5 1 .8 2.2.8 3.5zm-3.5-.9c0-.9-.3-1.5-.9-2-.6-.6-1.3-.9-2.2-.9a3 3 0 00-2.1.8c-.6.5-1 1.2-1 2.1h6.2zM172.8 14.7l-8.2 19.6H161l2.9-6.6-5.4-13h3.8l3.4 9.3 3.5-9.3h3.6z" fill="#fff"/><path d="M34.1 5.9A19.9 19.9 0 006 5.9a19.9 19.9 0 000 28.2 19.9 19.9 0 0028.2 0 19.9 19.9 0 000-28.2z" fill="#33CC95"/><g clip-path="url(#clip0)" stroke="#fff" stroke-width="2" stroke-linecap="round" stroke-linejoin="round"><path d="M20.6 8v25.1M26.3 12.6h-8.6a4 4 0 000 8h5.7a4 4 0 010 8h-9.7"/></g><defs><clipPath id="clip0"><path fill="#fff" transform="translate(6.9 6.9)" d="M0 0h27.4v27.4H0z"/></clipPath></defs></svg>